<svg width="1329" height="443" viewBox="0 0 1329 443" fill="none" xmlns="http://www.w3.org/2000/svg">
<path d="M1327 299.346L1299.96 272.415L1272.92 386.31L1245.88 352.074L1218.83 307.912L1191.79 86.8459L1164.75 304.668L1137.71 441L1110.67 296.011L1083.63 277.784L1056.59 34.4867L1029.55 201.369L1002.5 298.605L975.462 252.283L948.421 339.689L921.38 321.322L894.338 247.259L867.297 210.93L840.256 231.112L813.214 436.671L786.173 176.932L759.132 312.724L732.09 184.575L705.049 119.862L678.007 212.097L650.966 141.334L623.925 406.535L596.883 318.452L569.842 265.037L542.801 54.6454L515.759 2L488.718 182.258L461.677 172.093L434.635 135.226L407.594 223.943L380.552 390.99L353.511 192.617L326.47 243.777L299.428 327.248L272.387 152.584L245.346 161.025L218.304 275.737L191.263 217.144L164.222 96.993L137.18 180.45L110.139 250.539L83.0976 291.793L56.0562 401.156L29.0149 349.947L2 79.5575V441H29.0149H56.0562H83.0976H110.139H137.18H164.222H191.263H218.304H245.346H272.387H299.428H326.47H353.511H380.552H407.594H434.635H461.677H488.718H515.759H542.801H569.842H596.883H623.925H650.966H678.007H705.049H732.09H759.132H786.173H813.214H840.256H867.297H894.338H921.38H948.421H975.462H1002.5H1029.55H1056.59H1083.63H1110.67H1137.71H1164.75H1191.79H1218.83H1245.88H1272.92H1299.96H1327V299.346Z" fill="url(#paint0_linear_123_13)"/>
<path d="M1327 299.346L1299.96 272.415L1272.92 386.31L1245.88 352.074L1218.83 307.912L1191.79 86.8459L1164.75 304.668L1137.71 441L1110.67 296.011L1083.63 277.784L1056.59 34.4867L1029.55 201.369L1002.5 298.605L975.462 252.283L948.421 339.689L921.38 321.322L894.338 247.259L867.297 210.93L840.256 231.112L813.214 436.671L786.173 176.932L759.132 312.724L732.09 184.575L705.049 119.862L678.007 212.097L650.966 141.334L623.925 406.535L596.883 318.452L569.842 265.037L542.801 54.6454L515.759 2L488.718 182.258L461.677 172.093L434.635 135.226L407.594 223.943L380.552 390.99L353.511 192.617L326.47 243.777L299.428 327.248L272.387 152.584L245.346 161.025L218.304 275.737L191.263 217.144L164.222 96.993L137.18 180.45L110.139 250.539L83.0976 291.793L56.0562 401.156L29.0149 349.947L2 79.5575" stroke="#2C3E50" stroke-width="3" stroke-linecap="round" stroke-linejoin="round"/>
<defs>
<linearGradient id="paint0_linear_123_13" x1="664.5" y1="2" x2="664.5" y2="2" gradientUnits="userSpaceOnUse">
<stop stop-color="#2C3E50" stop-opacity="0.4"/>
<stop offset="1" stop-color="#2C3E50" stop-opacity="0"/>
</linearGradient>
</defs>
</svg>
